# xmcd
#
# Track frame offsets:
# 150
# 17054
# 37615
# 55987
# 74961
# 92618
# 116559
# 131352
#
# Disc length: 2023 seconds
#
# Revision: 0
# Processed by: cddbd v1.5.1PL2 Copyright (c) Steve Scherf et al.
# Submitted via: Axialis_AX_CDPlayer 2.6
#
DISCID=6607e508
DTITLE=Mustafa Sandal - Yamali Tovbeler
DYEAR=1900
DGENRE=
TTITLE0=Yamali Tovbeler
TTITLE1=Yamali Tovbeler-Akustik(Bonova)
TTITLE2=Isyankar(Panjabi MC Version)-Feat.Gentlemen
TTITLE3=Kopmam Lazim(Retro Version)
TTITLE4=Araba 2005 (Summer Tone)
TTITLE5=Yamali Tovbeler(Sense&Trance)
TTITLE6=Isyankar(Kingstone's Senorita Remix)
TTITLE7=Yamali Tovbeler-(Calisun)Feat.Ilhan Ersahin
EXTD=
EXTT0=
EXTT1=
EXTT2=
EXTT3=
EXTT4=
EXTT5=
EXTT6=
EXTT7=
PLAYORDER=
